PathFileType	4	(X/Y/Z)	/Users/itak/Documents/Research/Walk-IL/dataset/trc/00265_00009.trc
DataRate	CameraRate	NumFrames	NumMarkers	Units	OrigDataRate	OrigDataStartFrame	OrigNumFrames
100.000000	100.000000	4	54	mm	100.000000	53	428
Frame#	Time	RPSI			LPSI			L3			STRN			T10			C7			CLAV			RBAK			LBAK			LSHO			LUPA			LAEL			LAOL			LWTS			LWPS			LFRA			LIFD			LHPS			LHTS			RSHO			RUPA			RAEL			RAOL			RWTS			RWPS			RFRA			RIFD			RHTS			RHPS			RBHD			LFHD			RFHD			LBHD			LHIP			RHIP			RASI			LASI			LKNE			LTHI			LANK			LTIP			LTOE			LMT1			LMT5			LHEE			RKNE			RTHI			RANK			RTIP			RTOE			RMT1			RMT5			RHEE			*53			
		X1	Y1	Z1	X2	Y2	Z2	X3	Y3	Z3	X4	Y4	Z4	X5	Y5	Z5	X6	Y6	Z6	X7	Y7	Z7	X8	Y8	Z8	X9	Y9	Z9	X10	Y10	Z10	X11	Y11	Z11	X12	Y12	Z12	X13	Y13	Z13	X14	Y14	Z14	X15	Y15	Z15	X16	Y16	Z16	X17	Y17	Z17	X18	Y18	Z18	X19	Y19	Z19	X20	Y20	Z20	X21	Y21	Z21	X22	Y22	Z22	X23	Y23	Z23	X24	Y24	Z24	X25	Y25	Z25	X26	Y26	Z26	X27	Y27	Z27	X28	Y28	Z28	X29	Y29	Z29	X30	Y30	Z30	X31	Y31	Z31	X32	Y32	Z32	X33	Y33	Z33	X34	Y34	Z34	X35	Y35	Z35	X36	Y36	Z36	X37	Y37	Z37	X38	Y38	Z38	X39	Y39	Z39	X40	Y40	Z40	X41	Y41	Z41	X42	Y42	Z42	X43	Y43	Z43	X44	Y44	Z44	X45	Y45	Z45	X46	Y46	Z46	X47	Y47	Z47	X48	Y48	Z48	X49	Y49	Z49	X50	Y50	Z50	X51	Y51	Z51	X52	Y52	Z52	X53	Y53	Z53	X54	Y54	Z54	

54	0.53	-1282.82470703125	1029.570678710938	722.28125	-1296.895629882812	1031.325927734375	601.918212890625	-1297.411376953125	1121.022583007812	639.78759765625	-1036.723876953125	1289.593872070312	606.5904541015625	-1294.704345703125	1248.037475585938	637.5094604492188	-1212.458740234375	1502.565795898438	614.6917724609375	-1051.2177734375	1409.878295898438	605.1846313476562	-1289.776123046875	1372.753051757812	702.6898803710938	-1243.971801757812	1464.071166992188	507.4559631347656	-1159.3994140625	1456.145874023438	445.4257202148438	-1201.923950195312	1339.152587890625	372.168701171875	-1200.494506835938	1127.700805664062	344.2832946777344	-1266.448120117188	1113.079467773438	400.2630310058594	-1095.750732421875	898.7994384765625	396.7931213378906	-1128.500854492188	879.0112915039062	321.5248718261719	-1178.009887695312	1020.578002929688	330.5844116210938	-1073.950073242188	704.8569946289062	390.8928527832031	-1104.53857421875	791.6422119140625	326.5370178222656	-1056.783447265625	801.3206176757812	375.0187377929688	-1142.028564453125	1468.332397460938	780.40869140625	-1159.135864257812	1408.098999023438	852.368896484375	-1191.953735351562	1129.258911132812	904.5911254882812	-1228.212280273438	1121.676635742188	816.853515625	-1070.978271484375	904.6467895507812	864.9028930664062	-1118.637817382812	896.8577880859375	933.4949951171875	-1167.405883789062	1060.259643554688	918.5590209960938	-1063.330200195312	710.998291015625	867.9314575195312	-1034.599487304688	783.7301635742188	881.4019775390625	-1081.334716796875	787.70166015625	936.6693725585938	-1134.730102539062	1632.781982421875	692.9569091796875	-1028.6826171875	1713.228271484375	507.9126892089844	-971.7762451171875	1710.391845703125	590.6548461914062	-1172.667602539062	1650.529418945312	558.0482177734375	-1219.41015625	961.7677001953125	448.3812561035156	-1166.764038085938	1000.598754882812	811.58544921875	-1079.5283203125	1040.338256835938	757.327392578125	-1111.546752929688	1005.645141601562	479.8633728027344	-1230.422973632812	484.1632690429688	530.1597900390625	-1215.30419921875	623.6087036132812	487.7489318847656	-1408.552368164062	40.71443939208984	585.6016235351562	-1322.037841796875	270.9927673339844	549.407470703125	-1192.706298828125	45.451171875	640.8095703125	-1261.71240234375	36.8577766418457	684.1810913085938	-1280.411254882812	42.97283935546875	568.7923583984375	-1471.603393554688	48.25776672363281	637.2861328125	-961.701416015625	546.359130859375	755.4868774414062	-1045.482421875	798.5484008789062	809.1967163085938	-890.5808715820312	52.48052215576172	754.9931030273438	-922.2498779296875	432.893310546875	736.97265625	-727.8068237304688	128.7976531982422	641.678955078125	-791.8955688476562	105.6443328857422	620.3301391601562	-784.628662109375	81.72883605957031	735.6204223632812	-967.9050903320312	33.42492294311523	725.1917724609375	nan	nan	nan	
55	0.54	-1276.526611328125	1028.450805664062	723.1797485351562	-1291.64697265625	1030.346435546875	602.94677734375	-1291.858032226562	1119.972534179688	640.7755126953125	-1031.478515625	1288.559448242188	605.45751953125	-1289.28759765625	1247.0537109375	638.3956909179688	-1207.21728515625	1501.53564453125	615.0770263671875	-1045.914184570312	1408.901000976562	604.27001953125	-1283.813720703125	1371.62841796875	703.4967651367188	-1239.505737304688	1463.141235351562	507.9968566894531	-1155.359375	1455.265747070312	445.3698120117188	-1198.4638671875	1338.34228515625	372.2573547363281	-1197.28662109375	1126.89599609375	344.2523803710938	-1262.88232421875	1112.299072265625	400.6766662597656	-1092.4833984375	897.8229370117188	395.94189453125	-1125.71923828125	878.1422119140625	320.8425903320312	-1174.970825195312	1019.781555175781	330.3489990234375	-1071.093627929688	703.8347778320312	389.7643127441406	-1101.947631835938	790.7305908203125	325.6100769042969	-1053.840209960938	800.2398681640625	373.8916320800781	-1135.503295898438	1467.148681640625	780.232666015625	-1152.097778320312	1406.830078125	852.2183227539062	-1184.768188476562	1127.960693359375	904.3904418945312	-1221.748901367188	1120.559814453125	816.9517822265625	-1064.38818359375	903.276123046875	863.1273193359375	-1111.380615234375	895.3978881835938	932.1361694335938	-1160.085327148438	1058.943237304688	918.0035400390625	-1057.0673828125	709.5850830078125	865.5990600585938	-1027.961303710938	782.3153686523438	878.8896484375	-1074.240356445312	786.1915893554688	934.7451171875	-1128.93505859375	1631.733764648438	692.8593139648438	-1023.799377441406	1712.23291015625	507.3343505859375	-966.5109252929688	1709.298095703125	589.801513671875	-1167.545288085938	1649.634521484375	558.2164306640625	-1215.654296875	960.9734497070312	448.6831970214844	-1159.887451171875	999.3255615234375	811.30078125	-1072.767700195312	1039.260009765625	756.4144897460938	-1107.56396484375	1004.692443847656	479.1221923828125	-1227.567016601562	483.5758972167969	529.8698120117188	-1212.209838867188	623.0035400390625	487.5269470214844	-1408.417114257812	41.07918548583984	585.74072265625	-1320.479736328125	270.8853454589844	549.3078002929688	-1192.653930664062	45.3825569152832	640.7545166015625	-1261.680908203125	36.93194580078125	684.1190185546875	-1280.416625976562	42.9387092590332	568.699951171875	-1471.470458984375	49.07216644287109	637.3123779296875	-955.0001831054688	545.3348388671875	753.2988891601562	-1038.519653320312	797.2919921875	807.9296264648438	-880.6802978515625	51.82508850097656	751.6287841796875	-915.0907592773438	432.1133117675781	734.0216064453125	-721.3950805664062	129.0849609375	634.1011962890625	-785.8759765625	105.5499877929688	614.4783935546875	-775.4676513671875	81.62744903564453	729.4852294921875	-958.716552734375	32.37936019897461	723.8316650390625	nan	nan	nan	
56	0.55	-1270.02490234375	1027.311401367188	724.1103515625	-1286.23291015625	1029.384399414062	603.9910888671875	-1286.110595703125	1118.896240234375	641.7972412109375	-1026.1103515625	1287.53173828125	604.3047485351562	-1283.705932617188	1246.015869140625	639.3170166015625	-1201.868286132812	1500.483032226562	615.52099609375	-1040.524169921875	1407.920776367188	603.3479614257812	-1277.715698242188	1370.464599609375	704.3596801757812	-1234.975463867188	1462.174194335938	508.6145935058594	-1151.271484375	1454.3779296875	445.3496398925781	-1194.970336914062	1337.516967773438	372.4104919433594	-1194.072631835938	1126.09423828125	344.2366943359375	-1259.262573242188	1111.490478515625	401.15478515625	-1089.1572265625	896.852294921875	395.0455017089844	-1122.913940429688	877.2831420898438	320.1349487304688	-1171.906005859375	1018.98291015625	330.1224670410156	-1068.123168945312	702.8193359375	388.5748291015625	-1099.291137695312	789.8265380859375	324.6646423339844	-1050.839721679688	799.1586303710938	372.70703125	-1128.836791992188	1465.927368164062	780.0657958984375	-1144.883544921875	1405.528686523438	852.07568359375	-1177.41845703125	1126.622314453125	904.1760864257812	-1215.113525390625	1119.407836914062	817.0479125976562	-1057.629760742188	901.8609619140625	861.3599853515625	-1103.966064453125	893.8959350585938	930.7901000976562	-1152.658325195312	1057.592895507812	917.4611206054688	-1050.68701171875	708.107421875	863.292236328125	-1021.196533203125	780.8452758789062	876.4009399414062	-1067.0185546875	784.639404296875	932.8389282226562	-1123.062377929688	1630.673706054688	692.7726440429688	-1018.853637695312	1711.245971679688	506.7861938476562	-961.18701171875	1708.202026367188	588.972412109375	-1162.363525390625	1648.749755859375	558.4020385742188	-1211.749877929688	960.18701171875	449.0206298828125	-1152.863037109375	998.0283203125	811.0132446289062	-1065.788818359375	1038.148071289062	755.47119140625	-1103.451416015625	1003.71826171875	478.388427734375	-1224.702026367188	482.992431640625	529.5720825195312	-1209.029541015625	622.4226684570312	487.3171081542969	-1408.29638671875	41.46158218383789	585.9016723632812	-1318.924560546875	270.8351440429688	549.2241821289062	-1192.595581054688	45.30666732788086	640.6807250976562	-1261.625854492188	37.01118850708008	684.0418701171875	-1280.407104492188	42.88959503173828	568.6188354492188	-1471.343994140625	49.98977661132812	637.3598022460938	-948.3021240234375	544.2096557617188	751.0325317382812	-1031.376220703125	795.983154296875	806.5489501953125	-871.5365600585938	50.96041870117188	748.34521484375	-908.0852661132812	431.1580810546875	731.04052734375	-715.6505126953125	128.8835144042969	626.790771484375	-780.4893188476562	105.0435638427734	608.8706665039062	-767.0547485351562	81.143798828125	723.5224609375	-950.325927734375	31.39906883239746	722.5984497070312	nan	nan	nan	
57	0.5600000000000001	-1263.322265625	1026.160888671875	725.0663452148438	-1280.643798828125	1028.4365234375	605.0526733398438	-1280.172973632812	1117.799560546875	642.844970703125	-1020.623840332031	1286.513671875	603.1373901367188	-1277.955688476562	1244.921752929688	640.27880859375	-1196.40625	1499.408325195312	616.02294921875	-1035.055297851562	1406.9375	602.4229125976562	-1271.482299804688	1369.263916015625	705.2796020507812	-1230.374389648438	1461.173461914062	509.3131103515625	-1147.136108398438	1453.485229492188	445.3696594238281	-1191.442749023438	1336.678100585938	372.6338500976562	-1190.851318359375	1125.29736328125	344.2424621582031	-1255.584838867188	1110.662353515625	401.6960754394531	-1085.766845703125	895.8904418945312	394.1015319824219	-1120.084716796875	876.439697265625	319.4023742675781	-1168.818237304688	1018.183898925781	329.9049987792969	-1065.019287109375	701.8152465820312	387.3179626464844	-1096.564453125	788.9376220703125	323.6939392089844	-1047.772216796875	798.090087890625	371.4551696777344	-1122.02978515625	1464.672119140625	779.91162109375	-1137.496948242188	1404.195556640625	851.9464721679688	-1169.901611328125	1125.24462890625	903.9430541992188	-1208.302001953125	1118.220581054688	817.1365356445312	-1050.695922851562	900.4052734375	859.6077270507812	-1096.392456054688	892.35107421875	929.4579467773438	-1145.119384765625	1056.207763671875	916.9297485351562	-1044.163696289062	706.5779418945312	861.0289306640625	-1014.309020996094	779.317138671875	873.9730834960938	-1059.658813476562	783.0475463867188	930.9568481445312	-1117.106201171875	1629.60302734375	692.6942749023438	-1013.849670410156	1710.272827148438	506.2639465332031	-955.801513671875	1707.112182617188	588.1572265625	-1157.124755859375	1647.868408203125	558.6041259765625	-1207.679443359375	959.4008178710938	449.3948974609375	-1145.677124023438	996.7046508789062	810.719482421875	-1058.5986328125	1037.001708984375	754.493408203125	-1099.173461914062	1002.738098144531	477.6621704101562	-1221.822509765625	482.4221496582031	529.26611328125	-1205.756958007812	621.870361328125	487.118896484375	-1408.1875	41.8616828918457	586.0818481445312	-1317.373779296875	270.8502807617188	549.1556396484375	-1192.529418945312	45.21938323974609	640.5892944335938	-1261.54443359375	37.09465026855469	683.9468994140625	-1280.384887695312	42.8321647644043	568.5508422851562	-1471.219604492188	51.00847625732422	637.4260864257812	-941.6005249023438	542.982421875	748.6890869140625	-1024.064575195312	794.6136474609375	805.0570068359375	-863.2425537109375	49.87335968017578	745.1918334960938	-901.2435302734375	430.0139770507812	728.036376953125	-710.55078125	128.1190490722656	619.8626098632812	-775.7281494140625	104.08349609375	603.5830688476562	-759.4580688476562	80.22496032714844	717.8162231445312	-942.7936401367188	30.48448753356934	721.482666015625	nan	nan	nan	
